<?xml version="1.0" encoding="UTF-8"?>
<svg width="155px" height="41px" viewBox="0 0 155 41" version="1.1" xmlns="http://www.w3.org/2000/svg" xmlns:xlink="http://www.w3.org/1999/xlink">
    <!-- Generator: Sketch 60 (88103) - https://sketch.com -->
    <title>Group</title>
    <desc>Created with Sketch.</desc>
    <g id="Page-1" stroke="none" stroke-width="1" fill="none" fill-rule="evenodd">
        <g id="Desktop-HD-Copy-5" transform="translate(-240.000000, -1558.000000)">
            <g id="Group-7" transform="translate(0.000000, 1516.000000)">
                <g id="Group" transform="translate(240.000000, 42.000000)">
                    <path d="M20.5,0 L52,0 L52,0 L44.1849711,41 L20.5,41 C9.17816263,41 1.38652519e-15,31.8218374 0,20.5 C-1.38652519e-15,9.17816263 9.17816263,2.07978778e-15 20.5,0 Z" id="Rectangle" fill="#9D813E"></path>
                    <path d="M39.9888922,15.548266 L39.7871358,14.689386 C39.7294911,14.4667133 39.4412676,14.2758511 39.2106888,14.2758511 L35.4926056,14.5621445 C34.9449809,14.0213681 34.0226657,13.1306777 32.9274164,12.2081769 C31.2268978,10.7767102 26.7306111,10.9993828 26.47121,11.0311931 C26.2118088,11.0311931 21.7155222,10.7767102 20.0150035,12.2081769 C18.9197542,13.1306777 17.997439,14.0213681 17.4498143,14.5621445 L13.7893759,14.2758511 C13.5587971,14.2758511 13.2705735,14.434903 13.2129288,14.689386 L13.0111724,15.548266 C12.9535277,15.802749 13.1264618,16.057232 13.3570406,16.057232 L14.6828687,16.057232 C14.4811123,16.3117149 14.3370005,16.661629 14.2793558,17.0751639 L14.1928888,17.8068024 C14.0199547,19.1746484 13.9911323,20.5743048 14.0775994,21.9421508 C14.1352441,22.896462 14.2505335,23.8825835 14.4811123,24.5824117 L14.4811123,25.8230162 C14.4811123,26.4592237 14.9422699,27 15.5475392,27 L18.6891754,27 C19.1791554,27 19.5826683,26.6500859 19.6979577,26.14112 L26.2694535,26.491034 L26.4135653,26.491034 C26.4423876,26.491034 26.47121,26.491034 26.5000323,26.491034 L26.5000323,26.491034 L26.5000323,26.491034 L26.5000323,26.491034 L26.5000323,26.491034 C26.5288547,26.491034 26.557677,26.491034 26.5864994,26.491034 L26.7306111,26.491034 L33.302107,26.14112 C33.4173964,26.6500859 33.8497316,27 34.3108892,27 L37.4525254,27 C38.0289724,27 38.5189524,26.491034 38.5189524,25.8230162 L38.5189524,24.5824117 C38.7495312,23.8825835 38.8648206,22.896462 38.9224653,21.9421508 C39.0089323,20.5743048 38.9512876,19.1746484 38.8071759,17.8068024 L38.7207088,17.1069742 C38.6630641,16.6934394 38.5189524,16.3435253 38.3171959,16.0890423 L39.6142017,16.0890423 C39.8736028,16.057232 40.0465369,15.802749 39.9888922,15.548266 Z M18.9485765,19.651804 L17.1904132,20.7333567 C16.8733673,20.9242189 16.4986768,20.765167 16.354565,20.415253 L15.2593157,17.6477506 C15.1440263,17.3932676 15.4034275,17.1069742 15.6340063,17.2342157 L18.9197542,18.9201655 C19.2079777,19.0792173 19.2079777,19.4927522 18.9485765,19.651804 Z M23.2431067,11.699211 L23.8195537,11.699211 C23.3872185,11.9536939 22.3784362,14.7211963 22.3784362,14.7211963 L20.879674,14.7211963 C21.456121,13.067057 23.2431067,11.699211 23.2431067,11.699211 Z M26.4135653,23.7235317 C26.4135653,23.7235317 20.21676,19.4291314 20.0726482,19.4291314 L26.4135653,21.5922367 L26.4135653,23.7235317 Z M26.6153217,23.7235317 L26.6153217,21.5604264 L32.9562388,19.397321 C32.812127,19.4291314 26.6153217,23.7235317 26.6153217,23.7235317 Z M37.7407489,17.6477506 L36.6166773,20.415253 C36.4725655,20.765167 36.097875,20.9242189 35.7808291,20.7333567 L34.0514881,19.651804 C33.7920869,19.4927522 33.7920869,19.0474069 34.0803104,18.9201655 L37.3660584,17.2342157 C37.5966372,17.1387846 37.8560383,17.3932676 37.7407489,17.6477506 Z" id="Shape" fill="#FFFFFF" fill-rule="nonzero"></path>
                    <path d="M68.5237944,16.7172312 L68.5237944,13.1826215 L62.1138469,13.1826215 L62.1138469,1 L58,1 L58,16.7172312 L68.5237944,16.7172312 Z M78.5145655,17 C83.6329564,17 86.0247279,14.2430044 86.0247279,10.3313697 L86.0247279,1 L81.8630455,1 L81.8630455,10.2135493 C81.8630455,12.0751105 80.7149952,13.4182622 78.5145655,13.4182622 C76.290218,13.4182622 75.1421677,12.0751105 75.1421677,10.2135493 L75.1421677,1 L70.9565677,1 L70.9565677,10.3549337 C70.9565677,14.2194404 73.3961746,17 78.5145655,17 Z M92.9301138,16.7172312 L96.3981824,11.4388807 L99.866251,16.7172312 L104.721547,16.7172312 L99.1726373,8.634757 L104.362781,1 L99.4835676,1 L96.3981824,5.92488954 L93.2888795,1 L88.4335834,1 L93.6237275,8.65832106 L88.0748177,16.7172312 L92.9301138,16.7172312 Z M109.737434,16.7172312 L110.526718,14.455081 L116.817077,14.455081 L117.606362,16.7172312 L122.270316,16.7172312 L116.26697,1 L111.076826,1 L105.073479,16.7172312 L109.737434,16.7172312 Z M115.692944,10.9204713 L111.650851,10.9204713 L113.683856,5.00589102 L115.692944,10.9204713 Z M128.410335,16.7172312 L128.410335,11.4388807 L130.515094,11.4388807 L133.193878,16.7172312 L137.905668,16.7172312 L134.652859,10.9440353 C136.159675,10.4256259 137.833915,8.9646539 137.833915,6.23122239 C137.833915,3.30927835 135.824827,1 132.285005,1 L124.296488,1 L124.296488,16.7172312 L128.410335,16.7172312 Z M131.663144,7.90427099 L128.410335,7.90427099 L128.410335,4.53460972 L131.663144,4.53460972 C132.763359,4.53460972 133.648314,5.12371134 133.648314,6.20765832 C133.648314,7.31516937 132.763359,7.90427099 131.663144,7.90427099 Z M148.972736,16.7172312 L148.972736,10.3784978 L155,1 L150.336046,1 L146.915812,6.79675994 L143.447744,1 L138.807707,1 L144.858889,10.3784978 L144.858889,16.7172312 L148.972736,16.7172312 Z" id="LUXARY" fill="#B69441" fill-rule="nonzero"></path>
                    <path d="M65.5281586,39 C69.3315756,39 71.3868382,36.8202899 72.4026577,34.8492754 L68.9063489,33.226087 C68.3866273,34.4550725 67.0400759,35.4753623 65.5281586,35.4753623 C62.9531744,35.4753623 61.1341489,33.5275362 61.1341489,31 C61.1341489,28.4492754 62.9531744,26.5246377 65.5281586,26.5246377 C67.0400759,26.5246377 68.3866273,27.5449275 68.9063489,28.773913 L72.4026577,27.1275362 C71.3868382,25.1101449 69.3315756,23 65.5281586,23 C60.6852985,23 57,26.2231884 57,31 C57,35.7536232 60.6852985,39 65.5281586,39 Z M77.7348661,38.7217391 L78.5144484,36.4956522 L84.7274837,36.4956522 L85.507066,38.7217391 L90.1136891,38.7217391 L84.1841384,23.2550725 L79.0577937,23.2550725 L73.128243,38.7217391 L77.7348661,38.7217391 Z M83.6171694,33.0173913 L79.6247627,33.0173913 L81.6327779,27.1971014 L83.6171694,33.0173913 Z M96.1782324,38.7217391 L96.1782324,33.5275362 L98.2571188,33.5275362 L100.902974,38.7217391 L105.556845,38.7217391 L102.34402,33.0405797 C103.832314,32.5304348 105.485973,31.0927536 105.485973,28.4028986 C105.485973,25.5275362 103.501582,23.2550725 100.005273,23.2550725 L92.1149547,23.2550725 L92.1149547,38.7217391 L96.1782324,38.7217391 Z M99.3910567,30.0492754 L96.1782324,30.0492754 L96.1782324,26.7333333 L99.3910567,26.7333333 C100.477747,26.7333333 101.351825,27.3130435 101.351825,28.3797101 C101.351825,29.4695652 100.477747,30.0492754 99.3910567,30.0492754 Z M114.432609,39 C118.661253,39 121,36.9362319 121,33.8289855 C121,28.0782609 112.093862,29.515942 112.093862,27.6144928 C112.093862,26.942029 112.613584,26.5478261 113.794769,26.5478261 C115.353934,26.5478261 117.078464,27.0811594 118.401392,28.1710145 L120.622021,25.1797101 C118.944737,23.7652174 116.747733,23.0231884 114.219996,23.0231884 C110.180342,23.0231884 107.959713,25.342029 107.959713,27.9391304 C107.959713,33.8985507 116.865851,32.2057971 116.865851,34.2463768 C116.865851,35.0115942 116.015398,35.4753623 114.645223,35.4753623 C112.471841,35.4753623 110.723687,34.5478261 109.589749,33.4347826 L107.439992,36.542029 C109.02278,38.0028986 111.243409,39 114.432609,39 Z" id="CARS" fill="#0C0D0D" fill-rule="nonzero"></path>
                </g>
            </g>
        </g>
    </g>
</svg>